<?xml version="1.0" standalone="no"?>
<!DOCTYPE svg PUBLIC "-//W3C//DTD SVG 20010904//EN"
 "http://www.w3.org/TR/2001/REC-SVG-20010904/DTD/svg10.dtd">
<svg version="1.0" xmlns="http://www.w3.org/2000/svg"
 width="1280.000000pt" height="726.000000pt" viewBox="0 0 1280.000000 726.000000"
 preserveAspectRatio="xMidYMid meet">
<g transform="translate(0.000000,726.000000) scale(0.100000,-0.100000)"
fill="#000000" stroke="none">
<path d="M12020 7177 c0 -40 -29 -173 -52 -242 -29 -84 -72 -167 -131 -254
-117 -174 -151 -327 -113 -510 l13 -64 -64 -196 c-352 -1075 -654 -2208 -1069
-4011 -271 -1178 -349 -1548 -342 -1635 l4 -40 31 65 c56 119 142 370 268 785
610 2016 1006 3405 1190 4185 60 251 145 633 166 740 9 47 22 77 51 115 55 71
123 216 148 313 51 204 33 433 -56 686 -28 81 -44 103 -44 63z"/>
<path d="M5235 6829 c-1181 -61 -2265 -381 -3205 -947 -546 -328 -1156 -833
-1439 -1191 -318 -402 -510 -830 -561 -1251 -6 -52 -16 -125 -21 -162 -18
-130 -11 -239 32 -538 113 -772 582 -1417 1386 -1903 257 -156 733 -370 981
-443 268 -78 763 -188 1114 -248 609 -104 1428 -166 1818 -137 85 6 225 16
310 22 892 60 1784 290 2575 663 469 222 812 571 989 1007 85 206 102 510 36
638 -59 117 -247 204 -401 187 -132 -15 -426 -121 -712 -258 -99 -47 -209 -90
-265 -106 -89 -24 -113 -26 -287 -26 -174 0 -198 3 -290 27 -120 32 -222 80
-291 135 -63 50 -148 174 -171 250 -24 77 -23 236 1 316 56 189 206 357 401
451 119 57 195 76 343 82 147 7 211 -2 472 -67 419 -104 734 -170 816 -170
163 0 398 62 552 146 454 248 692 720 669 1329 -10 256 -57 438 -181 700 -148
311 -322 519 -611 733 -290 214 -645 349 -1300 496 -970 217 -1917 308 -2760
265z m421 -4124 c202 -35 392 -124 505 -235 108 -107 145 -216 115 -338 -31
-127 -126 -229 -296 -317 -191 -98 -354 -130 -624 -122 -149 4 -199 10 -283
31 -253 63 -445 190 -519 341 -25 51 -29 72 -29 140 0 71 4 88 33 147 78 159
319 304 587 352 111 20 397 20 511 1z"/>
<path d="M10586 6298 c-3 -24 -7 -68 -10 -98 -11 -112 -45 -213 -126 -375
-116 -231 -129 -317 -78 -524 13 -54 18 -100 14 -125 -3 -23 -24 -155 -46
-295 -197 -1231 -326 -2454 -411 -3906 -14 -225 -18 -879 -6 -891 4 -4 12 -3
18 3 30 30 158 662 213 1053 233 1641 385 3005 427 3825 l11 220 59 120 c33
66 68 156 79 200 42 165 36 361 -17 544 -26 91 -100 278 -114 286 -4 3 -10
-14 -13 -37z"/>
<path d="M12537 4976 l-228 -344 -799 -1878 c-440 -1033 -800 -1886 -800
-1895 0 -26 47 -77 94 -101 43 -22 162 -36 182 -21 6 4 371 855 812 1891 l801
1883 86 391 c47 215 84 397 83 404 -2 7 -106 -142 -231 -330z"/>
</g>
</svg>
